# xmcd
#
# Track frame offsets: 
#        150
#        18376
#        37122
#        50334
#        67701
#        84934
#        96028
#        109842
#        124174
#        140678
#        154781
#
# Disc length: 2339 seconds
#
# Revision: 0
# Processed by: cddbd v1.5.1PL2 Copyright (c) Steve Scherf et al.
# Submitted via: ExactAudioCopy v0.95b2
#
DISCID=8909210b
DTITLE=Kelly J. - A Little Bit of Both
DYEAR=2002
DGENRE=Country
TTITLE0=Swept Away
TTITLE1=Sorry
TTITLE2=Plano, Texas
TTITLE3=A Little Bit of Both
TTITLE4=If We're Letting Go
TTITLE5=I Belong With You
TTITLE6=I Should Have Loved You
TTITLE7=I'll Be
TTITLE8=Diamonds And Love
TTITLE9=How Come You Go To Her
TTITLE10=Just Like Water
EXTD=
EXTT0=
EXTT1=
EXTT2=
EXTT3=
EXTT4=
EXTT5=
EXTT6=
EXTT7=
EXTT8=
EXTT9=
EXTT10=
PLAYORDER=
